<?xml version="1.0" encoding="utf-8"?>
<!-- Generator: Adobe Illustrator 27.8.0, SVG Export Plug-In . SVG Version: 6.00 Build 0)  -->
<svg version="1.1" id="Layer_1" xmlns="http://www.w3.org/2000/svg" xmlns:xlink="http://www.w3.org/1999/xlink" x="0px" y="0px"
	 viewBox="0 0 432 216" style="enable-background:new 0 0 432 216;" xml:space="preserve">
<style type="text/css">
	.st0{fill:#364958;}
	.st1{fill:#6C8F80;}
</style>
<g>
	<g>
		<path class="st0" d="M103.3,131.5v35.7v13h-20v-42.9v-10.8c0-2-0.4-3.9-1.3-5.5s-2.1-2.6-3.6-2.8c-3.2-0.3-5.9,2-8.2,7
			c-1.6,3.4-3,8.5-4.4,15.3c-0.9,4-1.9,10-3.1,18.2c-0.8,6.3-1.3,11.4-1.6,15.1c-0.4,2.9-0.6,5-0.6,6.4H40.7V81.5h19.9v73.8
			c0.2-2.3,0.4-4,0.6-5.1c1.5-11.4,3.6-20.2,6.5-26.5c2.1-4.9,4.9-8.5,8.3-10.8c2-1.5,4.6-2.4,7.7-2.8s5.6-0.2,7.6,0.6
			c3.9,1.4,6.8,4,8.9,8C102.3,122.7,103.3,127,103.3,131.5z"/>
		<path class="st0" d="M161.5,180.2v-21.8c-0.3,4.7-2.7,9.7-7.4,15.1c-4.6,5.4-10.1,8.2-16.5,8.2c-8,0-14.2-2.5-18.8-7.4
			c-4.6-4.9-6.9-10.8-6.9-17.5c0-8.4,2.9-15.3,8.6-20.7c5.7-5.3,12.9-8,21.4-8c7.5,0,13.6,1.9,18.3,5.8c-1-13.7-4.9-20.5-11.6-20.5
			c-6.7,0-11.2,4.3-13.5,13l-15-2.2c3.3-4.9,7-8.4,11.1-10.7c4.1-2.3,9.3-3.4,15.6-3.4c11.6,0,20.4,3.1,26.1,9.2
			c5.8,6.2,8.7,14.8,8.7,25.8v35.1L161.5,180.2L161.5,180.2z M159.9,140.9l0.3-2.8c-3.1-2.1-6.3-3.2-9.6-3.2
			c-5.4,0-10.3,2.3-14.6,6.8c-4.3,4.6-6.4,9.6-6.4,15c0,7.1,1.9,12,5.8,14.7l0.3,0.1l0.7,0.3c1.6,0.8,3.2,1.2,4.9,1.2
			C152.4,173,158.5,162.3,159.9,140.9z"/>
		<path class="st0" d="M248.5,111.5h6.4L232,174.8c-1.3,3.5-3.8,5.2-7.6,5.2h-16l-24.7-68.6h21.5l21.7,60.3L248.5,111.5z"/>
		<path class="st0" d="M313.2,172l1.3,2c-6,4.9-14.5,7.4-25.3,7.4c-8.3,0-16-3.2-22.9-9.6c-6.9-6.4-10.3-15.1-10.3-26.1
			c0-10.1,3.5-18.6,10.4-25.5s15.4-10.3,25.4-10.3c6.8,0,12.9,1.8,18.3,5.3s9.1,9,11.1,16.5l-14.6,4.9c-0.8,0.3-1.8,0.7-3.1,1.1
			c-1.3,0.4-3.6,1.4-6.9,2.8c-3.3,1.5-6.2,2.9-8.7,4.3c-2.5,1.4-4.8,3.2-6.9,5.2c-2.1,2.1-3.1,4.1-3,5.9
			C286.1,167.8,297.8,173.1,313.2,172z M275.5,151.8c0.6-1.9,3.1-4.3,7.5-7.1s8.4-4.9,11.9-6.5s7-3.1,10.4-4.4l-1.9-4.4
			c-6-10.3-12.4-15.4-19.2-15.4c-4.7,0-8.3,1.6-10.9,4.8c-2.6,3.2-3.9,7.2-3.9,12.1c0,0.2,0,0.5,0.1,0.9c0,0.4,0.1,0.8,0.1,1.1
			C270.5,139.7,272.4,146.1,275.5,151.8z"/>
		<path class="st0" d="M379.4,110.7c3.9,1.4,6.8,4,8.9,8c2,4,3.1,8.2,3.1,12.8v48.6h-19.9v-42.9v-10.8c0-2-0.4-3.9-1.3-5.5
			s-2.1-2.6-3.6-2.8c-3.2-0.3-5.9,2-8.2,7c-1.6,3.4-3,8.5-4.4,15.3c-0.9,4-1.9,10-3.1,18.2c-0.8,6.3-1.3,11.4-1.6,15.1
			c-0.4,2.9-0.6,5-0.6,6.4h-19.9v-68.7h19.9v43.8c0.2-2.3,0.4-4,0.6-5.1c1.5-11.4,3.6-20.2,6.5-26.5c2.1-4.9,4.9-8.5,8.3-10.8
			c2-1.5,4.6-2.4,7.7-2.8C374.9,109.8,377.4,110,379.4,110.7z"/>
	</g>
	<path class="st1" d="M307.5,94.2c-5.5-8.8-11.4-17.3-20.1-23.3c-4.3-3-8.8-5.7-14-6.7c-3.1-0.6-5.6-1.9-8.3-4.1c3.7,0.4,7,0.6,10,2
		c3.1,1.4,6.3,2,9.7,1.7c2-0.2,4.2,0.2,5,2.1c1.1,2.6,3,3.8,5.4,4.7c1.2,0.5,2.5,2.6,3.5,1.3c1-1.3-0.7-2.9-1.8-4
		c-0.9-1-2.3-1.5-3.5-2.3c-0.6-0.4-1.6-0.2-1.8-1.3c1.2-0.4,2.2,0.2,3.2,0.5c2.4,0.8,4.9,1.3,7.4,0.7c7.1-1.5,13.9-0.7,20.7,1.7
		c2.2,0.8,4.5,1.4,7,2.2c-0.3-1.4-1-1.7-1.5-2.1c-8-5.5-16.6-9.7-26.4-11c-2.4-0.3-4.1-0.6-1.9-3.5c0.6-0.8,1.3-2.1,0.2-3
		c-1.1-0.8-2,0.2-2.9,0.9c-2.9,2-5.8,3.6-9.2,4.9c-3.7,1.4-7.5,2-11.3,2.9c-4.2,0.9-12.1,0.5-16.3-1.8c2.2-0.3,4.4-0.3,6.6-0.4
		c4.3-0.1,8.6-0.7,12.7-2.2c7.8-2.7,14.9-7.4,23.8-9.1c-4.3-1.3-13.7-2-21.7-0.9c-6.8,1-13.2,2.6-18.2,7.6c-1.3,1.3-2.3,3.2-4.2,3.8
		c-7,2.1-14.2,2.5-21.4,1.8c-0.5-0.1-1.1-0.1-1.2-0.7c-0.1-0.6,0.5-0.8,0.9-1c4.6-1.4,9.8-6.7,9.6-9.6c-0.1-2.6-2.1-3.7-4.4-3.4
		c-2.4,0.4-3.7,2.2-3.5,4.6c0.3,3.8-1.7,6-4.5,7.8c-6.7,4.2-13.8,1.5-21.5,1.4c15.2-2,25.4-20.3,41.3-30.1c-5.2,1-9.4,2.4-14.2,4
		c-12.1,3.9-19.8,10.1-25.6,21.1c-1.8,3.3-4.5,4.4-7.7,4.8c-1.7,0.2-3.5,0.3-5.3,0.5l0,0l0,0c-1,0.1-2.1,0.2-3.1,0.3
		s-2.2,0.3-3.6,0.6c-4.2,0.5-8.7,1-12.9,1.4c18.2-8.2,21.9-20.6,48.9-32.8C191,29.5,186,49.1,179.6,58.1c-2.2,3.1-11.7,5.1-18,6.3
		c11-9.3,13-24.6,25.3-33.1c-19,5.3-28.6,23.6-36.7,35.4c-2.9,4.2-7.9,6.6-12.6,7c7.5-5.4,2.4-12.2,12.3-25
		c-7.1,3.6-12.5,8.7-14.7,16.5c-2.3,8.1-6.2,14.8-13.4,19.5c-3.3,2.2-6.5,4.8-8.9,8.1c-0.6,0.9-1.5,2-0.5,2.9c1.1,1.1,2,0,2.8-0.7
		c2.3-2.2,4.4-4.5,6.7-6.5c6.9-6,13.9-11.5,24.2-8.2c13,4.2,34.9,6.2,45.7,1.2c-6.1-1.8-12-3.6-17.8-5.3
		c-11.7-3.4-23.2-0.5-34.8,0.9c6.1-3.1,12.3-5.6,18.4-8.3c5.7-2.5,12.3-3.8,17.2-0.7c14.7,9.2,25.1,17.6,42,15.8
		c-16.7-6.1-26.5-22.5-44.3-19.3c0-0.5,9.1-1.3,15.2-3.4c4.5-1.5,10.1-1.7,15-2.1c1,0,1.9-0.1,2.9-0.1c0.3,0.4,0.6,0.8,1,1.4
		c1.2,1.5,3.4,8.7,8.6,12.6c8.6,6.9,17.6,11.1,27.9,14.8c1.4,0.5,3,0.9,5.1,0.5c-7.7-5.1-13.7-11.3-19-18.3
		c-4.2-5.6-9.5-9.7-15.9-11.4c4.7,0,9.3,0.6,13.9,1.8c2.2,0.6,4.5,1.6,6.8,1.2c3.7-0.7,5.3,1.4,7.1,4.1c4.3,6.5,8.3,13.3,14.3,18.4
		c5.6,4.8,12.1,8.2,18.6,11.5c0.9,0.5,1.8,1.5,3.2,1.2c-0.1-0.4-0.1-0.7-0.2-0.8c-7.5-5.9-10.8-15.2-17.4-21.8
		c-5.1-5.1-14.7-12.6-18.7-14.3c4.4-0.6,7.9-0.6,11.1,1.4c0.7,0.5,7.9,10.7,12,5.8c1.4-1.7,0-3.6-1.7-4.3c-1.1-0.5-2.2-0.8-3.5-0.5
		c-3.1,0.7-4,0.1-5.1-3.4c7.9-0.1,14.1,2.8,18.8,8.9c2,2.6,4.1,4.9,6.3,7.2c8.1,8.3,18.1,13.8,27.5,20.3c0.5,0.3,1,1.1,1.9,0.5
		C307.8,95.4,307.8,94.7,307.5,94.2z"/>
</g>
</svg>
